<?xml version="1.0" standalone="no"?>
<!DOCTYPE svg PUBLIC "-//W3C//DTD SVG 20010904//EN"
 "http://www.w3.org/TR/2001/REC-SVG-20010904/DTD/svg10.dtd">
<svg version="1.0" xmlns="http://www.w3.org/2000/svg"
 width="260.000000pt" height="260.000000pt" viewBox="0 0 260.000000 260.000000"
 preserveAspectRatio="xMidYMid meet">
<metadata>
Created by potrace 1.14, written by Peter Selinger 2001-2017
</metadata>
<g transform="translate(0.000000,260.000000) scale(0.100000,-0.100000)"
fill="#000000" stroke="none">
<path d="M321 2424 c-217 -47 -338 -200 -270 -341 27 -57 59 -80 129 -95 l57
-11 -13 -26 c-20 -37 -17 -81 6 -119 27 -44 80 -65 148 -60 l53 5 -38 -40
c-21 -22 -52 -46 -70 -53 -39 -17 -131 -18 -170 -3 l-28 11 23 15 c14 10 22
26 22 44 0 59 -85 63 -111 5 -15 -32 -4 -88 21 -111 51 -46 168 -58 268 -27
105 33 141 65 270 243 22 31 61 70 87 87 l46 30 -23 26 -23 26 -100 -71 c-118
-85 -186 -119 -237 -119 -75 0 -85 23 -44 100 23 44 25 45 122 73 310 89 556
267 518 375 -45 127 -387 -9 -626 -250 -94 -94 -109 -101 -171 -74 -54 22 -70
49 -64 102 13 117 182 212 364 202 71 -3 73 -3 82 24 9 26 8 27 -40 37 -64 14
-108 13 -188 -5z m579 -64 c0 -23 -93 -108 -167 -153 -79 -47 -300 -143 -309
-134 -3 2 28 37 68 76 129 127 287 220 376 221 17 0 32 -5 32 -10z"/>
<path d="M1431 1710 c-220 -59 -509 -303 -603 -509 -38 -83 -47 -181 -21 -231
107 -205 487 14 700 405 46 84 50 89 100 107 59 22 89 54 99 105 21 113 -105
169 -275 123z m194 -70 c22 -18 18 -48 -10 -75 -30 -31 -45 -32 -45 -1 0 13
-12 40 -26 61 l-25 38 45 -5 c25 -3 53 -11 61 -18z m-135 -55 c42 -50 -65
-253 -221 -420 -181 -193 -399 -271 -399 -142 0 39 53 144 121 243 65 93 88
114 65 60 -20 -49 -21 -46 17 -46 29 0 35 5 66 66 36 70 129 171 183 201 96
52 147 63 168 38z"/>
<path d="M1871 934 c-217 -47 -338 -200 -270 -341 27 -57 59 -80 129 -95 l57
-11 -13 -26 c-20 -37 -17 -81 6 -119 27 -44 80 -65 148 -60 l53 5 -38 -40
c-21 -22 -52 -46 -70 -53 -39 -17 -131 -18 -170 -3 l-28 11 23 15 c14 10 22
26 22 44 0 59 -85 63 -111 5 -15 -32 -4 -88 21 -111 51 -46 168 -58 268 -27
105 33 141 65 270 243 22 31 61 70 87 87 l46 30 -23 26 -23 26 -100 -71 c-118
-85 -186 -119 -237 -119 -75 0 -85 23 -44 100 23 44 25 45 122 73 310 89 556
267 518 375 -45 127 -387 -9 -626 -250 -94 -94 -109 -101 -171 -74 -54 22 -70
49 -64 102 13 117 182 212 364 202 71 -3 73 -3 82 24 9 26 8 27 -40 37 -64 14
-108 13 -188 -5z m579 -64 c0 -23 -93 -108 -167 -153 -79 -47 -300 -143 -309
-134 -3 2 28 37 68 76 129 127 287 220 376 221 17 0 32 -5 32 -10z"/>
</g>
</svg>
